Description

Sinopse e detalhes

Bahia, 1925. Uma das maiores secas da história do Nordeste leva para Ilhéus Gabriela (Sônia Braga), uma bela retirante que com sua beleza e sensualidade conquista a todos, principalmente Nacib (Marcello Mastroianni), dono do bar mais popular da cidade, que emprega Gabriela para trabalhar em sua casa e com quem tem um caso. O relacionamento dos dois fica tão intenso que eles se casam, mas tudo parece desmoronar quando Gabriela lhe é infiel com o maior conquistador da cidade. Paralelamente, um "coronel" vai ser julgado por ter matado sua mulher com o amante. Os outros "coronéis" acham que ele tem de ser inocentado, pois houve um forte motivo para o crime, mas os tempos mudaram e determinados conceitos do passado estão sendo ents.

Format : Matroska
Format version : Version 2
File size : 568 MiB
Duration : 1h 38mn
Overall bit rate : 805 Kbps
Encoded date : UTC 2013-05-20 20:00:37
Writing application : mkvmerge v5.8.0 ('No Sleep / Pillow') built on Sep 2 2012 15:37:04
Writing library : libebml v1.2.3 + libmatroska v1.3.0

Video
ID : 1
Format : AVC
Format/Info : Advanced Video Codec
Format profile : High@L4.1
Format settings, CABAC : Yes
Format settings, ReFrames : 4 frames
Muxing mode : Header stripping
Codec ID : V_MPEG4/ISO/AVC
Duration : 1h 38mn
Bit rate : 597 Kbps
Width : 704 pixels
Height : 304 pixels
Display aspect ratio : 2.35:1
Frame rate mode : Constant
Frame rate : 23.976 fps
Color space : YUV
Chroma subsampling : 4:2:0
Bit depth : 8 bits
Scan type : Progressive
Bits/(Pixel*Frame) : 0.116
Stream size : 421 MiB (74%)
Title : 1983 - Gabriela ( by fantasma )
Writing library : x264 core 130 r2273 b3065e6
Encoding settings : cabac=1 / ref=3 / deblock=1:0:0 / analyse=0x3:0x113 / me=hex / subme=7 / psy=1 / psy_rd=1.00:0.00 / mixed_ref=1 / me_range=16 / chroma_me=1 / trellis=1 / 8x8dct=1 / cqm=0 / deadzone=21,11 / fast_pskip=1 / chroma_qp_offset=-2 / threads=3 / lookahead_threads=1 / sliced_threads=0 / nr=0 / decimate=1 / interlaced=0 / bluray_compat=0 / constrained_intra=0 / bframes=3 / b_pyramid=2 / b_adapt=1 / b_bias=0 / direct=1 / weightb=1 / open_gop=0 / weightp=2 / keyint=240 / keyint_min=23 / scenecut=40 / intra_refresh=0 / rc_lookahead=40 / rc=crf / mbtree=1 / crf=23.0 / qcomp=0.60 / qpmin=0 / qpmax=69 / qpstep=4 / vbv_maxrate=24000 / vbv_bufsize=24000 / crf_max=0.0 / nal_hrd=none / ip_ratio=1.40 / aq=1:1.00
Language : Portuguese
Default : Yes
Forced : No

Audio
ID : 2
Format : AC-3
Format/Info : Audio Coding 3
Mode extension : CM (complete main)
Format settings, Endianness : Big
Muxing mode : Header stripping
Codec ID : A_AC3
Duration : 1h 38mn
Bit rate mode : Constant
Bit rate : 192 Kbps
Channel(s) : 2 channels
Channel positions : Front: L R
Sampling rate : 48.0 KHz
Bit depth : 16 bits
Compression mode : Lossy
Delay relative to video : 127ms
Stream size : 135 MiB (24%)
Title : por
Language : Portuguese
Default : Yes
Forced : No

Text
ID : 3
Format : UTF-8
Codec ID : S_TEXT/UTF8
Codec ID/Info : UTF-8 Plain Text
Title : Credito
Language : Portuguese
Default : Yes
Forced : No

Menu
00:00:00.000 : en:Chapter 01
00:15:41.801 : en:Chapter 02
00:28:55.001 : en:Chapter 03
00:42:58.201 : en:Chapter 04
00:55:26.201 : en:Chapter 05
01:07:21.268 : en:Chapter 06
01:17:40.468 : en:Chapter 07
01:34:55.668 : en:Chapter 08